<?xml version="1.0" encoding="utf-8"?>
<!-- Generator: Adobe Illustrator 27.9.0, SVG Export Plug-In . SVG Version: 6.00 Build 0)  -->
<svg version="1.1" id="Calque_1" xmlns="http://www.w3.org/2000/svg" xmlns:xlink="http://www.w3.org/1999/xlink" x="0px" y="0px"
	 viewBox="0 0 41.1 34.6" style="enable-background:new 0 0 41.1 34.6;" xml:space="preserve">
<style type="text/css">
	.st0{fill:#E17F0A;}
	.st1{fill:url(#SVGID_1_);}
</style>
<g>
	<g>
		<path class="st0" d="M12.5,30.2h-2.3v2h2.7v0.6H9.4v-5.7h3.5v0.6h-2.7v1.8h2.3V30.2z"/>
		<path class="st0" d="M15,31.6l0.1,0.3h0l0.1-0.3l1-3h0.8l-1.6,4.2h-0.6l-1.6-4.2H14L15,31.6z"/>
		<path class="st0" d="M19.3,33c-0.6,0-1.1-0.2-1.4-0.6s-0.5-0.9-0.5-1.5v-0.2c0-0.6,0.2-1.1,0.5-1.5s0.8-0.6,1.3-0.6
			c0.6,0,1,0.2,1.3,0.5s0.4,0.8,0.4,1.4v0.4h-2.7l0,0c0,0.4,0.1,0.8,0.3,1s0.5,0.4,0.9,0.4c0.3,0,0.5,0,0.7-0.1s0.4-0.2,0.5-0.3
			l0.3,0.5c-0.1,0.2-0.4,0.3-0.6,0.4S19.6,33,19.3,33z M19.2,29.2c-0.3,0-0.5,0.1-0.7,0.3s-0.3,0.5-0.3,0.8l0,0h1.9v-0.1
			c0-0.3-0.1-0.6-0.2-0.8S19.5,29.2,19.2,29.2z"/>
		<path class="st0" d="M22.4,28.7l0,0.6c0.1-0.2,0.3-0.4,0.5-0.5c0.2-0.1,0.5-0.2,0.7-0.2c0.5,0,0.8,0.1,1.1,0.4s0.4,0.7,0.4,1.2
			v2.7h-0.8v-2.6c0-0.4-0.1-0.6-0.2-0.8c-0.1-0.2-0.4-0.2-0.7-0.2c-0.2,0-0.4,0-0.6,0.1c-0.2,0.1-0.3,0.2-0.4,0.4v3.1h-0.8v-4.2
			L22.4,28.7L22.4,28.7z"/>
		<path class="st0" d="M27.4,27.6v1h0.8v0.6h-0.8v2.6c0,0.2,0,0.3,0.1,0.4s0.2,0.1,0.3,0.1c0,0,0.1,0,0.1,0s0.1,0,0.1,0l0.1,0.5
			c-0.1,0-0.1,0.1-0.2,0.1s-0.2,0-0.3,0c-0.3,0-0.6-0.1-0.8-0.3s-0.3-0.5-0.3-0.9v-2.6h-0.7v-0.6h0.7v-1
			C26.6,27.6,27.4,27.6,27.4,27.6z"/>
		<path class="st0" d="M31.4,31.8c0-0.2-0.1-0.3-0.2-0.4s-0.4-0.2-0.7-0.3c-0.5-0.1-0.9-0.3-1.1-0.5S29,30.2,29,29.8
			c0-0.3,0.1-0.6,0.4-0.9s0.7-0.4,1.1-0.4c0.5,0,0.9,0.1,1.2,0.4c0.3,0.3,0.4,0.6,0.4,0.9l0,0h-0.7c0-0.2-0.1-0.4-0.2-0.5
			s-0.4-0.2-0.6-0.2c-0.3,0-0.5,0.1-0.6,0.2s-0.2,0.3-0.2,0.4s0.1,0.3,0.2,0.4s0.4,0.2,0.7,0.2c0.5,0.1,0.9,0.3,1.2,0.5
			c0.3,0.2,0.4,0.5,0.4,0.8c0,0.4-0.2,0.7-0.5,0.9C31.5,32.9,31,33,30.6,33c-0.5,0-1-0.1-1.3-0.4s-0.5-0.6-0.4-1l0,0h0.7
			c0,0.3,0.1,0.5,0.3,0.6s0.4,0.2,0.7,0.2c0.3,0,0.5-0.1,0.6-0.2S31.4,31.9,31.4,31.8z"/>
	</g>
</g>
<linearGradient id="SVGID_1_" gradientUnits="userSpaceOnUse" x1="31.82" y1="8.2203" x2="9.3206" y2="15.7812">
	<stop  offset="1.108180e-06" style="stop-color:#EC7B00"/>
	<stop  offset="0.245" style="stop-color:#E97C02"/>
	<stop  offset="0.3915" style="stop-color:#E17F0A"/>
	<stop  offset="0.5123" style="stop-color:#D38518"/>
	<stop  offset="0.619" style="stop-color:#BF8D2B"/>
	<stop  offset="0.7163" style="stop-color:#A49843"/>
	<stop  offset="0.807" style="stop-color:#84A462"/>
	<stop  offset="0.8924" style="stop-color:#5EB486"/>
	<stop  offset="0.9716" style="stop-color:#32C5AF"/>
	<stop  offset="1" style="stop-color:#21CCBF"/>
</linearGradient>
<path class="st1" d="M20.6,0.1C14,0.1,8.7,5.4,8.7,12S14,23.9,20.6,23.9c6.6,0,11.9-5.3,11.9-11.9S27.1,0.1,20.6,0.1z M26.6,14.1
	L26.6,14.1c0,0.5-0.3,1.1-1,1.5c-0.8,0.6-1.7,0.7-2.1,0.2c-0.3-0.5,0-1.3,0.8-1.9c0.6-0.4,1.2-0.6,1.7-0.5V4.3l-4.2,1.2v7.1h0
	c0,0.5-0.3,1.1-1,1.5c-0.8,0.6-1.7,0.7-2.1,0.2c-0.3-0.5,0-1.3,0.8-1.9c0.6-0.4,1.2-0.6,1.7-0.5V5.7L16,7.2v9.9h0
	c0,0.5-0.3,1.1-1,1.5c-0.8,0.6-1.7,0.7-2.1,0.2c-0.3-0.5,0-1.3,0.8-1.9c0.6-0.4,1.2-0.6,1.7-0.5V6.8l0.2-0.1L16,6.7l5.4-1.5L21.9,5
	l4.2-1.2l0.5-0.1V14.1z"/>
</svg>
