<?xml version="1.0" encoding="utf-8"?>
<!-- Generator: Adobe Illustrator 27.9.0, SVG Export Plug-In . SVG Version: 6.00 Build 0)  -->
<svg version="1.1" id="Calque_1" xmlns="http://www.w3.org/2000/svg" xmlns:xlink="http://www.w3.org/1999/xlink" x="0px" y="0px"
	 viewBox="0 0 30 30" style="enable-background:new 0 0 30 30;" xml:space="preserve">
<style type="text/css">
	.st0{fill:url(#SVGID_1_);}
</style>
<linearGradient id="SVGID_1_" gradientUnits="userSpaceOnUse" x1="26.7722" y1="17.0004" x2="3.2243" y2="17.0004" gradientTransform="matrix(1 0 0 -1 0 32)">
	<stop  offset="1.108180e-06" style="stop-color:#EC7B00"/>
	<stop  offset="0.245" style="stop-color:#E97C02"/>
	<stop  offset="0.3915" style="stop-color:#E17F0A"/>
	<stop  offset="0.5123" style="stop-color:#D38518"/>
	<stop  offset="0.619" style="stop-color:#BF8D2B"/>
	<stop  offset="0.7163" style="stop-color:#A49843"/>
	<stop  offset="0.807" style="stop-color:#84A462"/>
	<stop  offset="0.8924" style="stop-color:#5EB486"/>
	<stop  offset="0.9716" style="stop-color:#32C5AF"/>
	<stop  offset="1" style="stop-color:#21CCBF"/>
</linearGradient>
<path class="st0" d="M23.34,6.66c5.84,5.8,3.97,15.81-3.59,19.12c-4.33,1.95-9.74,0.94-13.08-2.46C3.27,20,2.25,14.58,4.22,10.25
	C7.53,2.69,17.53,0.82,23.34,6.66L23.34,6.66z M23.34,6.66c-3.17-3.24-8.35-4.21-12.47-2.34C3.67,7.49,1.9,17.02,7.46,22.54
	c5.53,5.56,15.05,3.79,18.22-3.41C27.55,15.02,26.58,9.84,23.34,6.66L23.34,6.66z M21.16,13.03h-2.07v1.57h2.07V13.03z M18.77,13.03
	H16.7v1.57h2.07V13.03z M16.39,13.03h-2.07v1.57h2.07V13.03z M21.16,14.81h-2.07v1.57h2.07V14.81z M18.77,14.81H16.7v1.57h2.07
	V14.81z M16.39,14.81h-2.07v1.57h2.07V14.81z M14,14.81h-2.07v1.57H14V14.81z M11.61,14.81H9.54v1.57h2.07V14.81z M21.16,16.59
	h-2.07v1.57h2.07V16.59z M18.77,16.59H16.7v1.57h2.07V16.59z M16.39,16.59h-2.07v1.57h2.07V16.59z M14,16.59h-2.07v1.57H14V16.59z
	 M11.61,16.59H9.54v1.57h2.07V16.59z M16.39,18.37h-2.07v1.57h2.07V18.37z M14,18.37h-2.07v1.57H14V18.37z M11.61,18.37H9.54v1.57
	h2.07V18.37z M12.48,11.18V9c0-0.27-0.21-0.48-0.48-0.48h-0.14c-0.27,0-0.48,0.21-0.48,0.48v2.18c0,0.27,0.21,0.48,0.48,0.48H12
	C12.27,11.66,12.48,11.44,12.48,11.18z M19.32,11.18V9c0-0.27-0.21-0.48-0.48-0.48H18.7c-0.27,0-0.48,0.21-0.48,0.48v2.18
	c0,0.27,0.21,0.48,0.48,0.48h0.14C19.11,11.66,19.32,11.44,19.32,11.18z M20.55,9.79H19.4v1.3c0,0.01,0.01,0.02,0.01,0.03
	c0,0.01-0.01,0.02-0.01,0.02v0.03c0,0.13-0.05,0.26-0.15,0.35c-0.12,0.14-0.28,0.24-0.48,0.24s-0.36-0.09-0.48-0.24
	c-0.09-0.09-0.15-0.2-0.15-0.35v-0.03c0-0.01-0.01-0.02-0.01-0.02c0-0.01,0.01-0.02,0.01-0.03v-1.3h-5.59v1.3
	c0,0.01,0.01,0.02,0.01,0.03c0,0.01-0.01,0.02-0.01,0.02v0.03c0,0.13-0.05,0.26-0.15,0.35c-0.12,0.14-0.28,0.24-0.48,0.24
	s-0.36-0.09-0.48-0.24c-0.09-0.09-0.15-0.2-0.15-0.35v-0.03c0-0.01-0.01-0.02-0.01-0.02c0-0.01,0.01-0.02,0.01-0.03v-1.3h-1.15
	c-0.86,0-1.55,0.69-1.55,1.55v7.94c0,0.86,0.69,1.55,1.55,1.55h10.39c0.86,0,1.55-0.69,1.55-1.55v-7.94
	C22.1,10.48,21.4,9.79,20.55,9.79z M21.44,19.58c0,0.39-0.32,0.71-0.71,0.71H9.98c-0.39,0-0.71-0.32-0.71-0.71v-6.89h12.17V19.58z"
	/>
</svg>
