<?xml version="1.0" encoding="utf-8"?>
<!-- Generator: Adobe Illustrator 27.9.0, SVG Export Plug-In . SVG Version: 6.00 Build 0)  -->
<svg version="1.1" id="Calque_1" xmlns="http://www.w3.org/2000/svg" xmlns:xlink="http://www.w3.org/1999/xlink" x="0px" y="0px"
	 viewBox="0 0 41.14 34.64" style="enable-background:new 0 0 41.14 34.64;" xml:space="preserve">
<style type="text/css">
	.st0{fill:url(#SVGID_1_);}
	.st1{fill:#E17F0A;}
	.st2{fill:url(#SVGID_00000108301387923807011550000001855255549952226959_);}
</style>
<g>
	
		<linearGradient id="SVGID_1_" gradientUnits="userSpaceOnUse" x1="33.9956" y1="14.2529" x2="10.4264" y2="14.2529" gradientTransform="matrix(0.7071 -0.7071 0.7071 0.7071 -5.1196 17.3829)">
		<stop  offset="1.108180e-06" style="stop-color:#EC7B00"/>
		<stop  offset="0.245" style="stop-color:#E97C02"/>
		<stop  offset="0.3915" style="stop-color:#E17F0A"/>
		<stop  offset="0.5123" style="stop-color:#D38518"/>
		<stop  offset="0.619" style="stop-color:#BF8D2B"/>
		<stop  offset="0.7163" style="stop-color:#A49843"/>
		<stop  offset="0.807" style="stop-color:#84A462"/>
		<stop  offset="0.8924" style="stop-color:#5EB486"/>
		<stop  offset="0.9716" style="stop-color:#32C5AF"/>
		<stop  offset="1" style="stop-color:#21CCBF"/>
	</linearGradient>
	<path class="st0" d="M29,3.42c5.84,5.8,3.97,15.81-3.59,19.12c-4.33,1.95-9.74,0.94-13.08-2.46c-3.4-3.32-4.42-8.74-2.45-13.07
		C13.19-0.55,23.19-2.42,29,3.42L29,3.42z M29,3.42c-3.17-3.24-8.35-4.21-12.47-2.34c-7.2,3.17-8.97,12.7-3.41,18.22
		c5.53,5.56,15.05,3.79,18.22-3.41C33.21,11.78,32.24,6.6,29,3.42L29,3.42z"/>
	<g>
		<path class="st1" d="M12.48,30.25h-2.34v2.04h2.73v0.6h-3.5V27.2h3.46v0.61h-2.69v1.84h2.34V30.25z"/>
		<path class="st1" d="M14.99,31.64l0.07,0.3h0.02l0.07-0.3l0.97-2.98h0.79l-1.55,4.23h-0.58l-1.57-4.23h0.79L14.99,31.64z"/>
		<path class="st1" d="M19.3,32.97c-0.61,0-1.08-0.19-1.42-0.58s-0.51-0.9-0.51-1.53v-0.17c0-0.61,0.18-1.11,0.53-1.51
			s0.78-0.6,1.28-0.6c0.56,0,0.99,0.18,1.27,0.53s0.42,0.82,0.42,1.4v0.41h-2.7l-0.01,0.02c0,0.42,0.09,0.77,0.28,1.03
			s0.47,0.4,0.86,0.4c0.26,0,0.49-0.04,0.69-0.11s0.37-0.18,0.51-0.31l0.3,0.5c-0.15,0.15-0.35,0.27-0.6,0.37
			S19.65,32.97,19.3,32.97z M19.18,29.18c-0.27,0-0.49,0.1-0.67,0.31s-0.28,0.47-0.32,0.79l0.01,0.02h1.91v-0.06
			c0-0.31-0.08-0.56-0.23-0.76S19.5,29.18,19.18,29.18z"/>
		<path class="st1" d="M22.43,28.66l0.05,0.63c0.14-0.22,0.32-0.4,0.53-0.52c0.21-0.12,0.45-0.19,0.72-0.19
			c0.46,0,0.81,0.13,1.06,0.4s0.38,0.68,0.38,1.24v2.67H24.4v-2.65c0-0.37-0.07-0.64-0.22-0.79c-0.15-0.16-0.37-0.23-0.67-0.23
			c-0.24,0-0.44,0.05-0.6,0.14c-0.17,0.09-0.3,0.23-0.39,0.4v3.14h-0.77v-4.23H22.43z"/>
		<path class="st1" d="M27.36,27.64v1.02h0.8v0.57h-0.8v2.57c0,0.2,0.04,0.34,0.12,0.42s0.19,0.12,0.33,0.12
			c0.04,0,0.09-0.01,0.15-0.02s0.1-0.02,0.14-0.04l0.11,0.53c-0.06,0.05-0.14,0.08-0.25,0.12s-0.22,0.04-0.33,0.04
			c-0.31,0-0.56-0.09-0.75-0.28s-0.28-0.49-0.28-0.89v-2.57h-0.67v-0.57h0.67v-1.02H27.36z"/>
		<path class="st1" d="M31.44,31.75c0-0.17-0.06-0.31-0.19-0.41s-0.37-0.2-0.73-0.28c-0.5-0.11-0.88-0.26-1.15-0.45
			s-0.4-0.45-0.4-0.77c0-0.34,0.15-0.64,0.44-0.88s0.67-0.37,1.14-0.37c0.48,0,0.87,0.13,1.16,0.39c0.3,0.26,0.44,0.56,0.43,0.91
			l-0.01,0.02h-0.73c0-0.18-0.08-0.35-0.24-0.5s-0.36-0.22-0.61-0.22c-0.27,0-0.47,0.06-0.61,0.18s-0.2,0.27-0.2,0.44
			c0,0.17,0.06,0.3,0.17,0.39s0.35,0.17,0.72,0.25c0.52,0.11,0.91,0.26,1.18,0.46c0.27,0.2,0.4,0.46,0.4,0.79
			c0,0.38-0.15,0.68-0.46,0.92c-0.3,0.24-0.7,0.36-1.19,0.36c-0.54,0-0.96-0.14-1.27-0.41s-0.46-0.59-0.44-0.96l0.01-0.02h0.73
			c0.01,0.27,0.11,0.47,0.3,0.6s0.41,0.19,0.67,0.19c0.27,0,0.49-0.06,0.64-0.17S31.44,31.93,31.44,31.75z"/>
	</g>
</g>
<g>
	
		<linearGradient id="SVGID_00000125563921536666213320000001279580925655993502_" gradientUnits="userSpaceOnUse" x1="32.6727" y1="1.1427" x2="10.1167" y2="21.0846">
		<stop  offset="1.108180e-06" style="stop-color:#EC7B00"/>
		<stop  offset="0.245" style="stop-color:#E97C02"/>
		<stop  offset="0.3915" style="stop-color:#E17F0A"/>
		<stop  offset="0.5123" style="stop-color:#D38518"/>
		<stop  offset="0.619" style="stop-color:#BF8D2B"/>
		<stop  offset="0.7163" style="stop-color:#A49843"/>
		<stop  offset="0.807" style="stop-color:#84A462"/>
		<stop  offset="0.8924" style="stop-color:#5EB486"/>
		<stop  offset="1" style="stop-color:#32C5AF"/>
	</linearGradient>
	<path style="fill:url(#SVGID_00000125563921536666213320000001279580925655993502_);" d="M21.61,4.09l0.12,7.66
		c0.03,0.42-0.23,1.01-0.74,1.5c-0.67,0.69-1.52,0.96-1.88,0.59c-0.35-0.35-0.1-1.2,0.59-1.89c0.55-0.57,1.21-0.84,1.62-0.71
		l0.12-7.66V3.57l0.02-0.59l0.13,0.57v0.02h0.02V3.6c0.42,1.52,1.27,3.22,2.9,3.68C23.02,6.93,22.13,5.49,21.61,4.09z M29.39,10.14
		c-1.62-0.46-2.48-2.16-2.9-3.68V6.43h-0.02V6.42l-0.13-0.57l-0.02,0.59v0.02l-0.12,7.66c-0.42-0.13-1.07,0.13-1.62,0.71
		c-0.69,0.69-0.94,1.53-0.59,1.89c0.35,0.37,1.21,0.1,1.88-0.59c0.5-0.49,0.77-1.08,0.74-1.5l-0.12-7.66
		C27.01,8.36,27.9,9.79,29.39,10.14z M18.96,11.29c-1.62-0.46-2.48-2.16-2.9-3.68V7.58h-0.02V7.56l-0.13-0.57l-0.02,0.59V7.6
		l-0.12,7.66c-0.42-0.13-1.07,0.13-1.62,0.71c-0.69,0.69-0.94,1.53-0.59,1.89c0.35,0.37,1.21,0.1,1.88-0.59
		c0.5-0.49,0.77-1.08,0.74-1.5L16.06,8.1C16.58,9.5,17.47,10.94,18.96,11.29z"/>
</g>
</svg>
