<?xml version="1.0" encoding="utf-8"?>
<!-- Generator: Adobe Illustrator 27.9.0, SVG Export Plug-In . SVG Version: 6.00 Build 0)  -->
<svg version="1.1" id="Calque_1" xmlns="http://www.w3.org/2000/svg" xmlns:xlink="http://www.w3.org/1999/xlink" x="0px" y="0px"
	 viewBox="0 0 30 30" style="enable-background:new 0 0 30 30;" xml:space="preserve">
<style type="text/css">
	.st0{fill:url(#SVGID_1_);}
</style>
<linearGradient id="SVGID_1_" gradientUnits="userSpaceOnUse" x1="25.7523" y1="4.4728" x2="4.2806" y2="25.4951">
	<stop  offset="1.108180e-06" style="stop-color:#EC7B00"/>
	<stop  offset="0.245" style="stop-color:#E97C02"/>
	<stop  offset="0.3915" style="stop-color:#E17F0A"/>
	<stop  offset="0.5123" style="stop-color:#D38518"/>
	<stop  offset="0.619" style="stop-color:#BF8D2B"/>
	<stop  offset="0.7163" style="stop-color:#A49843"/>
	<stop  offset="0.807" style="stop-color:#84A462"/>
	<stop  offset="0.8924" style="stop-color:#5EB486"/>
	<stop  offset="0.9716" style="stop-color:#32C5AF"/>
	<stop  offset="1" style="stop-color:#21CCBF"/>
</linearGradient>
<path class="st0" d="M15,0C6.7,0,0,6.7,0,15s6.7,15,15,15s15-6.7,15-15S23.3,0,15,0z M2.6,17.9c0,0.1,0,0.1-0.1,0.1
	c-0.1,0-0.1,0-0.1-0.1l-0.2-1.4l0.2-1.4c0-0.1,0-0.1,0.1-0.1c0.1,0,0.1,0,0.1,0.1l0.2,1.4L2.6,17.9z M3.5,18.8
	c0,0.1-0.1,0.1-0.1,0.1c-0.1,0-0.1,0-0.1-0.1L3,16.5l0.3-2.3c0-0.1,0.1-0.1,0.1-0.1c0.1,0,0.1,0,0.1,0.1l0.3,2.3L3.5,18.8z
	 M4.5,19.2c0,0.1-0.1,0.1-0.1,0.1c-0.1,0-0.1-0.1-0.1-0.1L4,16.5l0.2-2.8c0-0.1,0.1-0.1,0.1-0.1c0.1,0,0.1,0.1,0.1,0.1l0.3,2.8
	L4.5,19.2z M5.6,19.3c0,0.1-0.1,0.1-0.2,0.1c-0.1,0-0.1-0.1-0.2-0.1l-0.2-2.8l0.2-2.8c0-0.1,0.1-0.2,0.2-0.2c0.1,0,0.1,0.1,0.2,0.1
	l0.3,2.8L5.6,19.3z M6.6,19.3c0,0.1-0.1,0.2-0.2,0.2c-0.1,0-0.2-0.1-0.2-0.2l-0.2-2.8l0.2-2.6c0-0.1,0.1-0.2,0.2-0.2
	c0.1,0,0.2,0.1,0.2,0.2l0.2,2.6L6.6,19.3L6.6,19.3z M7.7,19.3L7.7,19.3c0,0.1-0.1,0.2-0.2,0.2c-0.1,0-0.2-0.1-0.2-0.2l-0.2-2.8
	l0.2-4.3c0-0.1,0.1-0.2,0.2-0.2c0.1,0,0.2,0.1,0.2,0.2l0.2,4.3L7.7,19.3z M8.7,19.3L8.7,19.3c0,0.1-0.1,0.2-0.2,0.2
	c-0.1,0-0.2-0.1-0.2-0.2l-0.2-2.8l0.2-5.3c0-0.1,0.1-0.2,0.2-0.2c0.1,0,0.2,0.1,0.2,0.2L9,16.5L8.7,19.3z M9.8,19.2L9.8,19.2
	c0,0.1-0.1,0.2-0.2,0.2c-0.1,0-0.2-0.1-0.2-0.2l-0.2-2.7l0.2-5.7c0-0.1,0.1-0.2,0.2-0.2c0.1,0,0.2,0.1,0.2,0.2l0.2,5.7L9.8,19.2z
	 M10.9,19.2L10.9,19.2c0,0.1-0.1,0.3-0.3,0.3c-0.1,0-0.3-0.1-0.3-0.3l-0.2-2.7l0.2-5.9c0-0.1,0.1-0.3,0.3-0.3c0.1,0,0.3,0.1,0.3,0.3
	l0.2,5.9L10.9,19.2z M12,19.2L12,19.2c0,0.2-0.1,0.3-0.3,0.3c-0.2,0-0.3-0.1-0.3-0.3l-0.1-2.7l0.1-5.8c0-0.2,0.1-0.3,0.3-0.3
	c0.2,0,0.3,0.1,0.3,0.3l0.2,5.8L12,19.2z M13.1,19.2L13.1,19.2c0,0.2-0.1,0.3-0.3,0.3c-0.2,0-0.3-0.1-0.3-0.3l-0.1-2.7l0.1-5.5
	c0-0.2,0.1-0.3,0.3-0.3c0.2,0,0.3,0.1,0.3,0.3l0.2,5.5L13.1,19.2z M14.2,19.2L14.2,19.2c0,0.2-0.1,0.3-0.3,0.3
	c-0.2,0-0.3-0.1-0.3-0.3l-0.1-2.7l0.1-6.6c0-0.2,0.1-0.3,0.3-0.3c0.2,0,0.3,0.1,0.3,0.3l0.1,6.6L14.2,19.2z M15.3,19.1L15.3,19.1
	c0,0.2-0.2,0.3-0.3,0.3c-0.2,0-0.3-0.2-0.3-0.3l-0.1-2.6l0.1-7.2c0-0.2,0.2-0.4,0.3-0.4c0.2,0,0.3,0.2,0.3,0.4l0.2,7.2L15.3,19.1z
	 M24.7,19.5c-0.1,0-8.7,0-8.8,0c-0.2,0-0.3-0.2-0.3-0.4V9c0-0.2,0.1-0.3,0.3-0.4c0.6-0.2,1.3-0.4,2-0.4c2.9,0,5.3,2.3,5.5,5.1
	c0.4-0.2,0.8-0.2,1.2-0.2c1.7,0,3.2,1.4,3.2,3.2C27.8,18.1,26.4,19.5,24.7,19.5z"/>
</svg>
