<?xml version="1.0" encoding="utf-8"?>
<!-- Generator: Adobe Illustrator 27.9.0, SVG Export Plug-In . SVG Version: 6.00 Build 0)  -->
<svg version="1.1" id="Calque_1" xmlns="http://www.w3.org/2000/svg" xmlns:xlink="http://www.w3.org/1999/xlink" x="0px" y="0px"
	 viewBox="0 0 30 30" style="enable-background:new 0 0 30 30;" xml:space="preserve">
<style type="text/css">
	.st0{fill:url(#SVGID_1_);}
	.st1{fill:url(#SVGID_00000119827259173222652680000007997807491534093978_);}
</style>
<linearGradient id="SVGID_1_" gradientUnits="userSpaceOnUse" x1="25.7523" y1="4.4728" x2="4.2806" y2="25.4951">
	<stop  offset="1.108180e-06" style="stop-color:#EC7B00"/>
	<stop  offset="0.245" style="stop-color:#E97C02"/>
	<stop  offset="0.3915" style="stop-color:#E17F0A"/>
	<stop  offset="0.5123" style="stop-color:#D38518"/>
	<stop  offset="0.619" style="stop-color:#BF8D2B"/>
	<stop  offset="0.7163" style="stop-color:#A49843"/>
	<stop  offset="0.807" style="stop-color:#84A462"/>
	<stop  offset="0.8924" style="stop-color:#5EB486"/>
	<stop  offset="0.9716" style="stop-color:#32C5AF"/>
	<stop  offset="1" style="stop-color:#21CCBF"/>
</linearGradient>
<path class="st0" d="M15,0C6.7,0,0,6.7,0,15s6.7,15,15,15s15-6.7,15-15S23.3,0,15,0z M24.6,18.4c0,3.4-2.7,6.1-6.1,6.1h-6.9
	c-3.4,0-6.1-2.7-6.1-6.1v-6.9c0-3.4,2.7-6.1,6.1-6.1h6.9c3.4,0,6.1,2.7,6.1,6.1V18.4z"/>
<linearGradient id="SVGID_00000071548599866598174580000005209978913727276976_" gradientUnits="userSpaceOnUse" x1="21.4474" y1="8.658" x2="8.5723" y2="21.2636">
	<stop  offset="1.108180e-06" style="stop-color:#EC7B00"/>
	<stop  offset="0.245" style="stop-color:#E97C02"/>
	<stop  offset="0.3915" style="stop-color:#E17F0A"/>
	<stop  offset="0.5123" style="stop-color:#D38518"/>
	<stop  offset="0.619" style="stop-color:#BF8D2B"/>
	<stop  offset="0.7163" style="stop-color:#A49843"/>
	<stop  offset="0.807" style="stop-color:#84A462"/>
	<stop  offset="0.8924" style="stop-color:#5EB486"/>
	<stop  offset="0.9716" style="stop-color:#32C5AF"/>
	<stop  offset="1" style="stop-color:#21CCBF"/>
</linearGradient>
<path style="fill:url(#SVGID_00000071548599866598174580000005209978913727276976_);" d="M18.5,7.4h-6.9c-2.3,0-4.1,1.8-4.1,4.1v6.9
	c0,2.3,1.8,4.1,4.1,4.1h6.9c2.3,0,4.1-1.8,4.1-4.1v-6.9C22.6,9.2,20.7,7.4,18.5,7.4z M15,19.6c-2.6,0-4.6-2.1-4.6-4.6
	c0-2.6,2.1-4.6,4.6-4.6s4.6,2.1,4.6,4.6C19.6,17.5,17.6,19.6,15,19.6z M19.6,10.5c-0.3,0-0.6-0.3-0.6-0.6c0-0.3,0.3-0.6,0.6-0.6
	s0.6,0.3,0.6,0.6C20.2,10.2,20,10.5,19.6,10.5z"/>
</svg>
