<?xml version="1.0" encoding="utf-8"?>
<!-- Generator: Adobe Illustrator 27.9.0, SVG Export Plug-In . SVG Version: 6.00 Build 0)  -->
<svg version="1.1" id="Calque_1" xmlns="http://www.w3.org/2000/svg" xmlns:xlink="http://www.w3.org/1999/xlink" x="0px" y="0px"
	 viewBox="0 0 30 30" style="enable-background:new 0 0 30 30;" xml:space="preserve">
<style type="text/css">
	.st0{fill:url(#SVGID_1_);}
</style>
<linearGradient id="SVGID_1_" gradientUnits="userSpaceOnUse" x1="25.7523" y1="4.4728" x2="4.2806" y2="25.4951">
	<stop  offset="1.108180e-06" style="stop-color:#EC7B00"/>
	<stop  offset="0.245" style="stop-color:#E97C02"/>
	<stop  offset="0.3915" style="stop-color:#E17F0A"/>
	<stop  offset="0.5123" style="stop-color:#D38518"/>
	<stop  offset="0.619" style="stop-color:#BF8D2B"/>
	<stop  offset="0.7163" style="stop-color:#A49843"/>
	<stop  offset="0.807" style="stop-color:#84A462"/>
	<stop  offset="0.8924" style="stop-color:#5EB486"/>
	<stop  offset="0.9716" style="stop-color:#32C5AF"/>
	<stop  offset="1" style="stop-color:#21CCBF"/>
</linearGradient>
<path class="st0" d="M23.2,8c-1.2,0.4-2.3,0.8-3.4,1c-0.5-2.7-1.2-5-2.3-6.5C19.8,3.3,21.9,5.3,23.2,8z M5.3,21.2
	c-0.7-1.7-1-3.6-1.1-5.6H2.1C2.2,17.9,2.9,20,4,21.8C4.3,21.7,4.8,21.5,5.3,21.2z M10.2,8.9c0.4-2.6,1.2-4.9,2.2-6.4
	C10.1,3.4,8.2,5.4,6.9,8C7.8,8.3,8.9,8.6,10.2,8.9z M2.1,14.4h2.1c0.1-2.1,0.5-4.1,1.2-5.8C4.8,8.4,4.4,8.2,4.1,8
	C2.9,9.9,2.2,12.1,2.1,14.4z M9.7,15.6H5.4c0.1,1.9,0.4,3.6,1,5.2c1-0.4,2.2-0.7,3.6-1C9.8,18.4,9.7,17,9.7,15.6z M23.6,9
	c-1.3,0.5-2.5,0.8-3.7,1.1c0.2,1.4,0.3,2.9,0.3,4.3h4.5C24.6,12.5,24.3,10.7,23.6,9z M11.3,20.7c0.7,4.4,2.2,7.2,3.6,7.2
	c0,0,0,0,0.1,0c1.4,0,2.9-2.8,3.7-7.3C15.9,20.2,13.4,20.3,11.3,20.7z M10.9,15.6c0,1.4,0.1,2.7,0.3,4c2.2-0.4,4.9-0.5,7.7-0.1
	c0.2-1.2,0.2-2.5,0.3-3.9H10.9z M18.6,9.2c-0.7-4.3-2.2-7.1-3.6-7.1c0,0,0,0-0.1,0c-1.4,0.1-2.9,2.8-3.6,7.1
	C13.4,9.5,15.9,9.6,18.6,9.2z M15.2,10.6c-1.4,0-2.8-0.1-4-0.3c-0.2,1.3-0.3,2.7-0.3,4.2h8.2c0-1.5-0.1-2.8-0.3-4.1
	C17.5,10.5,16.3,10.6,15.2,10.6z M9.7,14.4c0-1.5,0.1-3,0.3-4.4C8.6,9.8,7.4,9.4,6.5,9c-0.6,1.6-1,3.5-1.1,5.4H9.7z M5.8,7.6
	c0.7-1.4,1.5-2.6,2.5-3.7C7,4.7,5.8,5.8,4.8,7.1C5.1,7.2,5.4,7.4,5.8,7.6z M24.2,7.5c0.3-0.1,0.7-0.3,1-0.5
	c-0.9-1.2-2.1-2.2-3.4-3.1C22.8,5,23.6,6.2,24.2,7.5z M5.8,22.3c-0.5,0.2-0.8,0.4-1.1,0.5c1,1.3,2.3,2.5,3.7,3.3
	C7.3,25,6.5,23.7,5.8,22.3z M24.3,22.3c-0.7,1.4-1.5,2.7-2.5,3.7c1.4-0.8,2.5-1.9,3.5-3.2C25,22.6,24.6,22.5,24.3,22.3z M30,15
	c0,8.3-6.7,15-15,15S0,23.3,0,15S6.7,0,15,0S30,6.7,30,15z M29.1,15c0-7.7-6.2-14-13.9-14.1c0,0-0.1,0-0.1,0c0,0,0,0,0,0
	c0,0,0,0,0,0c0,0,0,0,0,0c0,0,0,0,0,0c0,0,0,0,0,0c-7.7,0-14,6.3-14,14.1s6.3,14.1,14,14.1c0,0,0,0,0,0c0,0,0,0,0,0c0,0,0,0,0,0
	c0,0,0,0,0,0c0,0,0,0,0,0c0,0,0.1,0,0.1,0C22.8,29,29.1,22.7,29.1,15z M12.4,27.4c-1-1.5-1.8-3.9-2.2-6.5c-1.3,0.3-2.4,0.6-3.3,1
	C8.1,24.5,10.1,26.6,12.4,27.4z M20.2,15.6c0,1.4-0.1,2.8-0.3,4.1c1.2,0.3,2.5,0.6,3.7,1.1c0.6-1.6,1-3.4,1-5.2H20.2z M19.8,20.8
	c-0.4,2.8-1.2,5.2-2.3,6.7c2.4-0.8,4.5-2.9,5.7-5.6C22.1,21.4,20.9,21.1,19.8,20.8z M24.7,8.6c0.7,1.8,1.1,3.7,1.2,5.8h2.1
	c-0.1-2.4-0.8-4.5-2-6.4C25.5,8.2,25.1,8.4,24.7,8.6z M27.9,15.6h-2.1c-0.1,2-0.5,3.9-1.1,5.7c0.4,0.2,0.8,0.4,1.2,0.6
	C27.1,20,27.8,17.9,27.9,15.6z"/>
</svg>
