<?xml version="1.0" encoding="utf-8"?>
<!-- Generator: Adobe Illustrator 27.9.0, SVG Export Plug-In . SVG Version: 6.00 Build 0)  -->
<svg version="1.1" id="Calque_1" xmlns="http://www.w3.org/2000/svg" xmlns:xlink="http://www.w3.org/1999/xlink" x="0px" y="0px"
	 viewBox="0 0 30 30" style="enable-background:new 0 0 30 30;" xml:space="preserve">
<style type="text/css">
	.st0{fill:#EC7B00;}
</style>
<path class="st0" d="M19.74,0.18c-5.45,0-9.88,4.41-9.88,9.86c0,1.8,0.49,3.48,1.33,4.92l-0.04,0.95l0.03,0.05
	c0.04,0.05,0.91,1.46,2.69,2.68l0.03,0.03l1.22,0.09c1.38,0.73,2.95,1.15,4.63,1.15c5.45,0,9.86-4.42,9.86-9.88
	C29.6,4.59,25.19,0.18,19.74,0.18z M19.74,18.67c-4.76,0-8.63-3.87-8.63-8.63c0-4.76,3.87-8.62,8.63-8.62
	c4.76,0,8.62,3.86,8.62,8.62C28.35,14.8,24.5,18.67,19.74,18.67z M23.95,16.06c-1.07,0.8-2.38,1.3-3.74,1.39
	c-1.36,0.1-2.73-0.21-3.94-0.83c-1.19-0.66-2.23-1.62-2.9-2.8c-0.7-1.17-0.99-2.54-0.95-3.87c0.08,1.33,0.46,2.63,1.18,3.74
	c0.69,1.11,1.68,2.03,2.83,2.64c1.15,0.62,2.46,0.91,3.77,0.87C21.51,17.15,22.81,16.75,23.95,16.06z M15.67,3.84
	c0.86-0.66,1.88-1.11,2.96-1.3c1.08-0.2,2.21-0.12,3.27,0.17c1.06,0.32,2.04,0.86,2.85,1.6c0.81,0.74,1.43,1.67,1.81,2.68
	c-0.99-1.91-2.72-3.4-4.76-3.96C19.78,2.42,17.52,2.73,15.67,3.84z M11.08,16.92l1.8,1.84c0,0-4.21,5.11-10.14,10.32l-2-1.94
	C0.74,27.14,5.16,21.82,11.08,16.92z M2.37,29.37l-0.01,0.01c-0.23,0.23-0.6,0.23-0.83,0l-1.07-1.07c-0.23-0.23-0.23-0.6,0-0.83
	l0.01-0.01L2.37,29.37z"/>
</svg>
