<?xml version="1.0" encoding="utf-8"?>
<!-- Generator: Adobe Illustrator 27.9.0, SVG Export Plug-In . SVG Version: 6.00 Build 0)  -->
<svg version="1.1" id="Calque_1" xmlns="http://www.w3.org/2000/svg" xmlns:xlink="http://www.w3.org/1999/xlink" x="0px" y="0px"
	 viewBox="0 0 41.14 34.64" style="enable-background:new 0 0 41.14 34.64;" xml:space="preserve">
<style type="text/css">
	.st0{enable-background:new    ;}
	.st1{fill:#E17F0A;}
	.st2{fill:url(#SVGID_1_);}
</style>
<g>
	<g class="st0">
		<path class="st1" d="M3.14,31.83h0.02l1.82-4.62h0.96v5.69H5.17v-4.26l-0.02,0L3.42,32.9H2.89l-1.77-4.41l-0.02,0v4.4H0.32v-5.69
			h1.01L3.14,31.83z"/>
		<path class="st1" d="M8.92,32.98c-0.61,0-1.08-0.19-1.42-0.58s-0.51-0.9-0.51-1.53v-0.17c0-0.61,0.18-1.11,0.53-1.51
			s0.78-0.6,1.28-0.6c0.56,0,0.99,0.18,1.27,0.53s0.42,0.82,0.42,1.4v0.41h-2.7l-0.01,0.02c0,0.42,0.09,0.77,0.28,1.03
			s0.47,0.4,0.86,0.4c0.26,0,0.49-0.04,0.69-0.11s0.37-0.18,0.51-0.31l0.3,0.5c-0.15,0.15-0.35,0.27-0.6,0.37S9.27,32.98,8.92,32.98
			z M8.8,29.2c-0.27,0-0.49,0.1-0.67,0.31s-0.28,0.47-0.32,0.79l0.01,0.02h1.91v-0.06c0-0.31-0.08-0.56-0.23-0.76
			S9.11,29.2,8.8,29.2z"/>
		<path class="st1" d="M13.81,31.76c0-0.17-0.06-0.31-0.19-0.41s-0.37-0.2-0.73-0.28c-0.5-0.11-0.88-0.26-1.15-0.45
			s-0.4-0.45-0.4-0.77c0-0.34,0.15-0.64,0.44-0.88s0.67-0.37,1.14-0.37c0.48,0,0.87,0.13,1.16,0.39s0.44,0.56,0.43,0.91l-0.01,0.02
			h-0.73c0-0.18-0.08-0.35-0.24-0.5s-0.36-0.22-0.61-0.22c-0.27,0-0.47,0.06-0.61,0.18s-0.2,0.27-0.2,0.44
			c0,0.17,0.06,0.3,0.17,0.39s0.35,0.17,0.72,0.25c0.52,0.11,0.91,0.26,1.18,0.46s0.4,0.46,0.4,0.79c0,0.38-0.15,0.68-0.46,0.92
			s-0.7,0.36-1.19,0.36c-0.54,0-0.96-0.14-1.27-0.41s-0.46-0.59-0.44-0.96l0.01-0.02h0.73c0.01,0.27,0.11,0.47,0.3,0.6
			s0.41,0.19,0.67,0.19c0.27,0,0.49-0.06,0.64-0.17S13.81,31.94,13.81,31.76z"/>
		<path class="st1" d="M17.99,31.76c0-0.17-0.06-0.31-0.19-0.41s-0.37-0.2-0.73-0.28c-0.5-0.11-0.88-0.26-1.15-0.45
			s-0.4-0.45-0.4-0.77c0-0.34,0.15-0.64,0.44-0.88s0.67-0.37,1.14-0.37c0.48,0,0.87,0.13,1.16,0.39s0.44,0.56,0.43,0.91l-0.01,0.02
			h-0.73c0-0.18-0.08-0.35-0.24-0.5s-0.36-0.22-0.61-0.22c-0.27,0-0.47,0.06-0.61,0.18s-0.2,0.27-0.2,0.44
			c0,0.17,0.06,0.3,0.17,0.39s0.35,0.17,0.72,0.25c0.52,0.11,0.91,0.26,1.18,0.46s0.4,0.46,0.4,0.79c0,0.38-0.15,0.68-0.46,0.92
			s-0.7,0.36-1.19,0.36c-0.54,0-0.96-0.14-1.27-0.41s-0.46-0.59-0.44-0.96l0.01-0.02h0.73c0.01,0.27,0.11,0.47,0.3,0.6
			s0.41,0.19,0.67,0.19c0.27,0,0.49-0.06,0.64-0.17S17.99,31.94,17.99,31.76z"/>
		<path class="st1" d="M22.32,32.9c-0.03-0.13-0.05-0.24-0.06-0.34c-0.01-0.1-0.02-0.2-0.03-0.29c-0.14,0.2-0.33,0.37-0.56,0.51
			s-0.48,0.21-0.74,0.21c-0.44,0-0.78-0.11-1.01-0.34s-0.35-0.54-0.35-0.93c0-0.4,0.16-0.72,0.49-0.95s0.77-0.34,1.33-0.34h0.84V30
			c0-0.25-0.08-0.44-0.23-0.59c-0.15-0.14-0.36-0.22-0.64-0.22c-0.25,0-0.45,0.06-0.61,0.19s-0.23,0.27-0.23,0.45l-0.73,0.01
			l-0.01-0.02c-0.02-0.31,0.13-0.59,0.43-0.84s0.7-0.38,1.19-0.38c0.48,0,0.87,0.12,1.16,0.37C22.86,29.2,23,29.55,23,30.01v2.04
			c0,0.15,0.01,0.3,0.02,0.44s0.04,0.28,0.09,0.41H22.32z M21.04,32.33c0.28,0,0.53-0.07,0.75-0.21c0.22-0.14,0.37-0.31,0.44-0.49
			v-0.69h-0.86c-0.31,0-0.56,0.08-0.74,0.23s-0.28,0.34-0.28,0.55c0,0.19,0.06,0.34,0.18,0.45S20.81,32.33,21.04,32.33z"/>
		<path class="st1" d="M23.98,30.86c0-0.68,0.15-1.23,0.44-1.64c0.29-0.42,0.7-0.62,1.22-0.62c0.27,0,0.5,0.05,0.71,0.16
			s0.37,0.26,0.51,0.47l0.09-0.55h0.61v4.25c0,0.54-0.16,0.96-0.47,1.25c-0.31,0.29-0.77,0.44-1.36,0.44c-0.2,0-0.42-0.03-0.66-0.08
			c-0.24-0.06-0.44-0.13-0.62-0.23l0.12-0.6c0.15,0.08,0.33,0.14,0.54,0.19c0.21,0.05,0.42,0.07,0.62,0.07
			c0.38,0,0.65-0.08,0.82-0.26c0.17-0.17,0.26-0.43,0.26-0.78v-0.48c-0.14,0.18-0.3,0.31-0.5,0.4c-0.19,0.09-0.42,0.14-0.67,0.14
			c-0.52,0-0.92-0.19-1.21-0.56c-0.29-0.37-0.44-0.87-0.44-1.47V30.86z M24.75,30.94c0,0.42,0.09,0.77,0.26,1.02
			c0.17,0.26,0.44,0.39,0.81,0.39c0.23,0,0.43-0.05,0.58-0.16s0.29-0.25,0.39-0.45V29.8c-0.1-0.18-0.23-0.32-0.39-0.43
			c-0.16-0.11-0.35-0.16-0.57-0.16c-0.37,0-0.64,0.15-0.81,0.46s-0.26,0.7-0.26,1.19V30.94z"/>
		<path class="st1" d="M30.42,32.98c-0.61,0-1.08-0.19-1.42-0.58s-0.51-0.9-0.51-1.53v-0.17c0-0.61,0.18-1.11,0.53-1.51
			c0.35-0.4,0.78-0.6,1.28-0.6c0.57,0,0.99,0.18,1.27,0.53c0.28,0.35,0.42,0.82,0.42,1.4v0.41h-2.7l-0.01,0.02
			c0,0.42,0.09,0.77,0.28,1.03s0.47,0.4,0.86,0.4c0.26,0,0.49-0.04,0.69-0.11c0.2-0.07,0.37-0.18,0.51-0.31l0.3,0.5
			c-0.15,0.15-0.35,0.27-0.6,0.37C31.06,32.93,30.77,32.98,30.42,32.98z M30.3,29.2c-0.27,0-0.49,0.1-0.67,0.31
			s-0.28,0.47-0.32,0.79l0.01,0.02h1.91v-0.06c0-0.31-0.08-0.56-0.23-0.76C30.84,29.3,30.61,29.2,30.3,29.2z"/>
		<path class="st1" d="M34.85,29.35l-0.39-0.02c-0.2,0-0.37,0.05-0.51,0.14c-0.14,0.1-0.25,0.23-0.32,0.41v3.02h-0.77v-4.23h0.69
			l0.07,0.62c0.12-0.22,0.27-0.39,0.44-0.51s0.38-0.18,0.61-0.18c0.06,0,0.11,0,0.16,0.01c0.05,0.01,0.1,0.02,0.13,0.03L34.85,29.35
			z"/>
		<path class="st1" d="M36.49,27.59h-0.77V26.8h0.77V27.59z M36.49,32.9h-0.77v-4.23h0.77V32.9z"/>
		<path class="st1" d="M39.42,32.98c-0.61,0-1.08-0.19-1.42-0.58s-0.51-0.9-0.51-1.53v-0.17c0-0.61,0.18-1.11,0.53-1.51
			c0.35-0.4,0.78-0.6,1.28-0.6c0.57,0,0.99,0.18,1.27,0.53c0.28,0.35,0.42,0.82,0.42,1.4v0.41h-2.7l-0.01,0.02
			c0,0.42,0.09,0.77,0.28,1.03s0.47,0.4,0.86,0.4c0.26,0,0.49-0.04,0.69-0.11c0.2-0.07,0.37-0.18,0.51-0.31l0.3,0.5
			c-0.15,0.15-0.35,0.27-0.6,0.37C40.07,32.93,39.77,32.98,39.42,32.98z M39.3,29.2c-0.27,0-0.49,0.1-0.67,0.31
			s-0.28,0.47-0.32,0.79l0.01,0.02h1.91v-0.06c0-0.31-0.08-0.56-0.23-0.76C39.85,29.3,39.62,29.2,39.3,29.2z"/>
	</g>
	
		<linearGradient id="SVGID_1_" gradientUnits="userSpaceOnUse" x1="32.4336" y1="24.2239" x2="8.8845" y2="24.2239" gradientTransform="matrix(1 0 0 -1 0 36)">
		<stop  offset="1.108180e-06" style="stop-color:#EC7B00"/>
		<stop  offset="0.245" style="stop-color:#E97C02"/>
		<stop  offset="0.3915" style="stop-color:#E17F0A"/>
		<stop  offset="0.5123" style="stop-color:#D38518"/>
		<stop  offset="0.619" style="stop-color:#BF8D2B"/>
		<stop  offset="0.7163" style="stop-color:#A49843"/>
		<stop  offset="0.807" style="stop-color:#84A462"/>
		<stop  offset="0.8924" style="stop-color:#5EB486"/>
		<stop  offset="0.9716" style="stop-color:#32C5AF"/>
		<stop  offset="1" style="stop-color:#21CCBF"/>
	</linearGradient>
	<path class="st2" d="M30.42,5.16c2.06,3.14,2.48,7.32,0.92,10.75c-3.17,7.2-12.69,8.97-18.22,3.41C7.56,13.8,9.33,4.27,16.53,1.1
		c3.44-1.56,7.62-1.14,10.75,0.92C21.39-2,12.88,0.17,9.88,7.03c-1.97,4.33-0.95,9.75,2.45,13.07c3.34,3.4,8.75,4.41,13.08,2.46
		C32.27,19.56,34.44,11.05,30.42,5.16z M20.12,10.17c0,0.41-0.33,0.74-0.74,0.74s-0.74-0.33-0.74-0.74s0.33-0.74,0.74-0.74
		S20.12,9.76,20.12,10.17z M22.23,10.17c0,0.41-0.33,0.74-0.74,0.74s-0.74-0.33-0.74-0.74s0.33-0.74,0.74-0.74
		S22.23,9.76,22.23,10.17z M24.28,10.17c0,0.41-0.33,0.74-0.74,0.74s-0.74-0.33-0.74-0.74s0.33-0.74,0.74-0.74
		S24.28,9.76,24.28,10.17z M20.53,15.03c-0.19,0.03-0.39,0.06-0.59,0.08c-0.42,0.04-0.84,0.05-1.24,0.04
		c-0.39-0.01-0.79,0.14-1.09,0.42c-0.49,0.45-1.28,1.02-2.28,1.21l-0.94,0.18l0.73-0.61c0.49-0.41,1.17-1.16,1.13-1.53
		c-0.01-0.05-0.02-0.11-0.13-0.17c-1.33-0.72-2.58-1.58-2.71-2.93c-0.11-1.15,0.55-2.26,1.7-3.1c-0.19,0.32-0.34,0.66-0.42,1.02
		c-0.56,0.61-0.85,1.32-0.78,2.04c0.11,1.13,1.24,1.89,2.45,2.54c0.29,0.16,0.37,0.39,0.39,0.56c0.04,0.38-0.22,0.81-0.53,1.18
		c0.43-0.22,0.79-0.5,1.05-0.74c0.35-0.32,0.8-0.51,1.26-0.54c0.6,0.19,1.26,0.32,1.94,0.37C20.49,15.03,20.51,15.03,20.53,15.03z
		 M27.11,16.07l-0.87-0.09c-1.02-0.1-1.87-0.67-2.4-1.12c-0.33-0.28-0.73-0.41-1.11-0.35c-0.41,0.06-0.82,0.09-1.24,0.09
		c-3.41,0-6.19-2.01-6.19-4.49s2.78-4.49,6.19-4.49s6.19,2.01,6.19,4.49c0,1.52-1.16,2.6-2.41,3.56l0,0
		c-0.09,0.07-0.13,0.14-0.13,0.23c0,0.46,0.78,1.25,1.28,1.63L27.11,16.07z M22.91,14c0.44,0,0.89,0.17,1.26,0.48
		c0.3,0.25,0.71,0.55,1.19,0.75c-0.36-0.39-0.72-0.89-0.72-1.34c0-0.25,0.11-0.47,0.32-0.63c1.15-0.87,2.21-1.86,2.21-3.16
		c0-2.2-2.55-3.99-5.69-3.99s-5.69,1.79-5.69,3.99s2.55,3.99,5.69,3.99c0.39,0,0.79-0.03,1.17-0.08C22.75,14.01,22.83,14,22.91,14z"
		/>
</g>
</svg>
