<?xml version="1.0" encoding="utf-8"?>
<!-- Generator: Adobe Illustrator 27.9.0, SVG Export Plug-In . SVG Version: 6.00 Build 0)  -->
<svg version="1.1" id="Calque_1" xmlns="http://www.w3.org/2000/svg" xmlns:xlink="http://www.w3.org/1999/xlink" x="0px" y="0px"
	 viewBox="0 0 41.1 34.6" style="enable-background:new 0 0 41.1 34.6;" xml:space="preserve">
<style type="text/css">
	.st0{fill:#EC7B00;}
	.st1{fill:url(#SVGID_1_);}
	.st2{fill:#FFFFFF;stroke:#FFFFFF;stroke-width:0.5;stroke-miterlimit:10;}
</style>
<g>
	<path class="st0" d="M4.2,32.8H3.5L1,28.5l0,0v4.3H0.3v-5.6H1l2.5,4.3l0,0v-4.3h0.7V32.8z"/>
	<path class="st0" d="M5.2,30.7c0-0.6,0.2-1.1,0.5-1.5s0.7-0.6,1.3-0.6c0.5,0,1,0.2,1.3,0.6c0.3,0.4,0.5,0.9,0.5,1.5v0.1
		c0,0.6-0.2,1.1-0.5,1.5s-0.7,0.6-1.3,0.6c-0.5,0-0.9-0.2-1.3-0.6C5.3,31.9,5.2,31.4,5.2,30.7L5.2,30.7z M5.9,30.8
		c0,0.4,0.1,0.8,0.3,1.1c0.2,0.3,0.4,0.4,0.8,0.4c0.3,0,0.6-0.1,0.8-0.4c0.2-0.3,0.3-0.7,0.3-1.1v-0.1c0-0.4-0.1-0.8-0.3-1.1
		c-0.2-0.3-0.4-0.4-0.8-0.4c-0.3,0-0.6,0.1-0.8,0.4C6,29.9,5.9,30.3,5.9,30.8L5.9,30.8z"/>
	<path class="st0" d="M10.4,27.7v1h0.7v0.6h-0.7v2.5c0,0.2,0,0.3,0.1,0.4c0.1,0.1,0.2,0.1,0.3,0.1c0,0,0.1,0,0.1,0c0,0,0.1,0,0.1,0
		l0.1,0.5c-0.1,0-0.1,0.1-0.2,0.1c-0.1,0-0.2,0-0.3,0c-0.3,0-0.5-0.1-0.7-0.3c-0.2-0.2-0.3-0.5-0.3-0.9v-2.5H9.1v-0.6h0.6v-1H10.4z"
		/>
	<path class="st0" d="M12.7,27.6H12v-0.8h0.7V27.6z M12.7,32.8H12v-4.2h0.7V32.8z"/>
	<path class="st0" d="M13.9,32.8v-3.6h-0.6v-0.6h0.6v-0.4c0-0.5,0.1-0.8,0.4-1.1s0.6-0.4,1-0.4c0.2,0,0.3,0,0.5,0.1
		c0.2,0,0.3,0.1,0.5,0.2l-0.1,0.6c-0.1-0.1-0.3-0.1-0.4-0.1c-0.1,0-0.3-0.1-0.4-0.1c-0.3,0-0.5,0.1-0.6,0.2
		c-0.1,0.1-0.2,0.3-0.2,0.6v0.4h0.8v0.6h-0.8v3.6H13.9z M16.7,32.8H16v-4.2h0.7V32.8z"/>
	<path class="st0" d="M19.3,32.3c0.2,0,0.4-0.1,0.6-0.2s0.2-0.3,0.2-0.6h0.6l0,0c0,0.4-0.1,0.7-0.4,1c-0.3,0.3-0.6,0.4-1,0.4
		c-0.5,0-1-0.2-1.2-0.6s-0.4-0.9-0.4-1.5v-0.2c0-0.6,0.1-1.1,0.4-1.5c0.3-0.4,0.7-0.6,1.2-0.6c0.4,0,0.8,0.1,1.1,0.4
		s0.4,0.6,0.4,1.1l0,0h-0.6c0-0.3-0.1-0.5-0.2-0.6c-0.2-0.2-0.3-0.3-0.6-0.3c-0.3,0-0.6,0.1-0.8,0.4c-0.2,0.3-0.2,0.6-0.2,1v0.2
		c0,0.4,0.1,0.8,0.2,1.1C18.7,32.2,19,32.3,19.3,32.3z"/>
	<path class="st0" d="M24,32.8c0-0.1,0-0.2-0.1-0.3c0-0.1,0-0.2,0-0.3c-0.1,0.2-0.3,0.4-0.5,0.5c-0.2,0.1-0.4,0.2-0.7,0.2
		c-0.4,0-0.7-0.1-0.9-0.3c-0.2-0.2-0.3-0.5-0.3-0.9c0-0.4,0.1-0.7,0.4-0.9c0.3-0.2,0.7-0.3,1.2-0.3h0.8V30c0-0.2-0.1-0.4-0.2-0.6
		c-0.1-0.1-0.3-0.2-0.6-0.2c-0.2,0-0.4,0.1-0.6,0.2c-0.1,0.1-0.2,0.3-0.2,0.4l-0.7,0l0,0c0-0.3,0.1-0.6,0.4-0.8
		c0.3-0.3,0.6-0.4,1.1-0.4c0.4,0,0.8,0.1,1.1,0.4s0.4,0.6,0.4,1v2c0,0.1,0,0.3,0,0.4c0,0.1,0,0.3,0.1,0.4H24z M22.8,32.3
		c0.3,0,0.5-0.1,0.7-0.2c0.2-0.1,0.3-0.3,0.4-0.5v-0.7h-0.8c-0.3,0-0.5,0.1-0.7,0.2c-0.2,0.2-0.3,0.3-0.3,0.5c0,0.2,0.1,0.3,0.2,0.4
		C22.4,32.2,22.6,32.3,22.8,32.3z"/>
	<path class="st0" d="M26.6,27.7v1h0.7v0.6h-0.7v2.5c0,0.2,0,0.3,0.1,0.4c0.1,0.1,0.2,0.1,0.3,0.1c0,0,0.1,0,0.1,0c0,0,0.1,0,0.1,0
		l0.1,0.5c-0.1,0-0.1,0.1-0.2,0.1s-0.2,0-0.3,0c-0.3,0-0.5-0.1-0.7-0.3c-0.2-0.2-0.3-0.5-0.3-0.9v-2.5h-0.6v-0.6h0.6v-1H26.6z"/>
	<path class="st0" d="M28.8,27.6h-0.7v-0.8h0.7V27.6z M28.8,32.8h-0.7v-4.2h0.7V32.8z"/>
	<path class="st0" d="M29.7,30.7c0-0.6,0.2-1.1,0.5-1.5s0.7-0.6,1.3-0.6c0.5,0,1,0.2,1.3,0.6c0.3,0.4,0.5,0.9,0.5,1.5v0.1
		c0,0.6-0.2,1.1-0.5,1.5s-0.7,0.6-1.3,0.6s-1-0.2-1.3-0.6S29.7,31.4,29.7,30.7L29.7,30.7z M30.4,30.8c0,0.4,0.1,0.8,0.3,1.1
		c0.2,0.3,0.4,0.4,0.8,0.4c0.3,0,0.6-0.1,0.8-0.4c0.2-0.3,0.3-0.7,0.3-1.1v-0.1c0-0.4-0.1-0.8-0.3-1.1c-0.2-0.3-0.4-0.4-0.8-0.4
		c-0.3,0-0.6,0.1-0.8,0.4C30.5,29.9,30.4,30.3,30.4,30.8L30.4,30.8z"/>
	<path class="st0" d="M34.6,28.7l0,0.6c0.1-0.2,0.3-0.4,0.5-0.5c0.2-0.1,0.4-0.2,0.7-0.2c0.4,0,0.7,0.1,1,0.4
		c0.2,0.3,0.3,0.7,0.3,1.2v2.6h-0.7v-2.6c0-0.4-0.1-0.6-0.2-0.8c-0.1-0.2-0.3-0.2-0.6-0.2c-0.2,0-0.4,0-0.5,0.1
		c-0.2,0.1-0.3,0.2-0.4,0.4v3.1H34v-4.2H34.6z"/>
	<path class="st0" d="M40.4,31.7c0-0.2-0.1-0.3-0.2-0.4c-0.1-0.1-0.3-0.2-0.7-0.3c-0.5-0.1-0.8-0.3-1-0.4c-0.2-0.2-0.4-0.4-0.4-0.8
		c0-0.3,0.1-0.6,0.4-0.9c0.3-0.2,0.6-0.4,1-0.4c0.4,0,0.8,0.1,1.1,0.4c0.3,0.3,0.4,0.6,0.4,0.9l0,0h-0.7c0-0.2-0.1-0.3-0.2-0.5
		c-0.1-0.1-0.3-0.2-0.6-0.2c-0.2,0-0.4,0.1-0.6,0.2c-0.1,0.1-0.2,0.3-0.2,0.4c0,0.2,0.1,0.3,0.2,0.4s0.3,0.2,0.7,0.2
		c0.5,0.1,0.8,0.3,1.1,0.5s0.4,0.5,0.4,0.8c0,0.4-0.1,0.7-0.4,0.9c-0.3,0.2-0.6,0.3-1.1,0.3c-0.5,0-0.9-0.1-1.2-0.4
		c-0.3-0.3-0.4-0.6-0.4-0.9l0,0h0.7c0,0.3,0.1,0.5,0.3,0.6c0.2,0.1,0.4,0.2,0.6,0.2c0.2,0,0.4-0.1,0.6-0.2S40.4,31.9,40.4,31.7z"/>
</g>
<linearGradient id="SVGID_1_" gradientUnits="userSpaceOnUse" x1="31.8178" y1="7.9963" x2="9.3222" y2="15.5559">
	<stop  offset="1.108180e-06" style="stop-color:#EC7B00"/>
	<stop  offset="0.245" style="stop-color:#E97C02"/>
	<stop  offset="0.3915" style="stop-color:#E17F0A"/>
	<stop  offset="0.5123" style="stop-color:#D38518"/>
	<stop  offset="0.619" style="stop-color:#BF8D2B"/>
	<stop  offset="0.7163" style="stop-color:#A49843"/>
	<stop  offset="0.807" style="stop-color:#84A462"/>
	<stop  offset="0.8924" style="stop-color:#5EB486"/>
	<stop  offset="0.9716" style="stop-color:#32C5AF"/>
	<stop  offset="1" style="stop-color:#21CCBF"/>
</linearGradient>
<circle class="st1" cx="20.6" cy="11.8" r="11.9"/>
<path class="st2" d="M26.7,12.3L26.7,12.3c-1.3-0.8-1.5-1.6-1.5-1.6l-0.9-2.4c-0.8-2-2.8-2.1-3.7-2c-0.2,0-0.3,0-0.4-0.2
	c-0.3-0.4-0.8-0.5-1.3-0.4c-0.5,0.2-0.8,0.6-0.9,1.1c0,0.1-0.1,0.3-0.2,0.4C17,7.7,15.5,9,16.1,11l0.8,2.5c0,0,0.3,0.8-0.2,2.1
	l0,0.1c0,0-0.1,0.7,0.4,1c0.3,0.2,0.7,0.2,1.1,0.1l0.8-0.3c0,0,0,0.1,0,0.1c0.2,0.6,1,0.9,1.8,0.6c0.8-0.3,1.3-1,1.1-1.6
	c0,0,0-0.1,0-0.1l4.5-1.5c0.5-0.2,0.8-0.4,0.8-0.8C27.2,12.8,26.8,12.3,26.7,12.3z M20.6,16.9c-0.6,0.2-1.1,0-1.2-0.4c0,0,0,0,0-0.1
	l2-0.7c0,0,0,0.1,0,0.1C21.5,16.2,21.1,16.7,20.6,16.9z M26.3,13.1c0,0.2-0.2,0.3-0.5,0.4l-7.7,2.6c-0.3,0.1-0.5,0.1-0.7,0
	c-0.2-0.1-0.2-0.5-0.2-0.6c0.6-1.4,0.2-2.2,0.2-2.2l-0.7-2.3c-0.6-2.2,1.8-3.5,1.9-3.5c-0.1-0.4,0.1-0.9,0.5-1
	c0.4-0.1,0.9,0.2,1,0.5c0.1,0,2.7-0.5,3.6,1.7l0.8,2.2c0,0,0.2,0.9,1.5,1.7C26.2,12.6,26.4,12.9,26.3,13.1z M26.1,13.7l0,0.1
	L26.1,13.7L26.1,13.7z M26.1,13.7l0,0.1L26.1,13.7L26.1,13.7z"/>
</svg>
