<?xml version="1.0" encoding="utf-8"?>
<!-- Generator: Adobe Illustrator 27.9.0, SVG Export Plug-In . SVG Version: 6.00 Build 0)  -->
<svg version="1.1" id="Calque_1" xmlns="http://www.w3.org/2000/svg" xmlns:xlink="http://www.w3.org/1999/xlink" x="0px" y="0px"
	 viewBox="0 0 41.1 34.6" style="enable-background:new 0 0 41.1 34.6;" xml:space="preserve">
<style type="text/css">
	.st0{fill:url(#SVGID_1_);}
	.st1{fill:#E17F0A;}
</style>
<linearGradient id="SVGID_1_" gradientUnits="userSpaceOnUse" x1="31.8178" y1="8.0829" x2="9.3222" y2="15.6425">
	<stop  offset="1.108180e-06" style="stop-color:#EC7B00"/>
	<stop  offset="0.245" style="stop-color:#E97C02"/>
	<stop  offset="0.3915" style="stop-color:#E17F0A"/>
	<stop  offset="0.5123" style="stop-color:#D38518"/>
	<stop  offset="0.619" style="stop-color:#BF8D2B"/>
	<stop  offset="0.7163" style="stop-color:#A49843"/>
	<stop  offset="0.807" style="stop-color:#84A462"/>
	<stop  offset="0.8924" style="stop-color:#5EB486"/>
	<stop  offset="0.9716" style="stop-color:#32C5AF"/>
	<stop  offset="1" style="stop-color:#21CCBF"/>
</linearGradient>
<path class="st0" d="M20.6,0C14,0,8.7,5.3,8.7,11.9c0,6.6,5.3,11.9,11.9,11.9s11.9-5.3,11.9-11.9C32.4,5.3,27.1,0,20.6,0z M26.8,13
	c-0.6,0-1-0.4-1.1-1l-3.6-0.3c-0.1,0.3-0.2,0.6-0.5,0.8l2.4,3.7c0.1-0.1,0.3-0.1,0.4-0.1c0.6,0,1.1,0.5,1.1,1.1
	c0,0.6-0.5,1.1-1.1,1.1c-0.6,0-1.1-0.5-1.1-1.1c0-0.3,0.1-0.6,0.3-0.8l-2.4-3.7C21,12.9,20.8,13,20.5,13c-0.3,0-0.6-0.1-0.9-0.3
	l-2.7,3.1c0.1,0.2,0.2,0.4,0.2,0.6c0,0.6-0.5,1.1-1.1,1.1c-0.6,0-1.1-0.5-1.1-1.1c0-0.6,0.5-1.1,1.1-1.1c0.2,0,0.4,0,0.6,0.2
	l2.7-3.1c-0.2-0.3-0.4-0.7-0.4-1c0-0.2,0-0.4,0.1-0.6l-3.1-1.8c-0.2,0.2-0.5,0.4-0.8,0.4c-0.6,0-1.1-0.5-1.1-1.1
	C14,7.5,14.5,7,15.1,7s1.1,0.5,1.1,1.1c0,0.1,0,0.2,0,0.3l3.1,1.8c0.3-0.4,0.7-0.6,1.2-0.6c0.2,0,0.5,0,0.7,0.2l2.4-3.8
	c-0.2-0.2-0.3-0.5-0.3-0.8c0-0.6,0.5-1.1,1.1-1.1c0.6,0,1.1,0.5,1.1,1.1c0,0.6-0.5,1.1-1.1,1.1c-0.1,0-0.3,0-0.4-0.1l-2.5,3.8
	c0.3,0.3,0.5,0.7,0.6,1.1l3.7,0.3c0.1-0.5,0.6-0.8,1.1-0.8c0.6,0,1.1,0.5,1.1,1.1C28,12.5,27.5,13,26.8,13z"/>
<g>
	<path class="st1" d="M8.7,30.5V33H7.9v-5.7h1.9c0.6,0,1.1,0.1,1.4,0.4c0.3,0.3,0.5,0.7,0.5,1.2c0,0.3-0.1,0.5-0.2,0.8
		s-0.4,0.4-0.7,0.5c0.3,0.1,0.5,0.3,0.7,0.5s0.2,0.5,0.2,0.8v0.5c0,0.2,0,0.3,0.1,0.5s0.1,0.3,0.2,0.3V33h-0.8
		c-0.1-0.1-0.2-0.2-0.2-0.4s0-0.3,0-0.5v-0.5c0-0.3-0.1-0.6-0.3-0.7s-0.4-0.3-0.7-0.3H8.7z M8.7,29.9h1.1c0.4,0,0.7-0.1,0.9-0.2
		s0.3-0.4,0.3-0.8c0-0.3-0.1-0.6-0.3-0.7s-0.5-0.3-0.9-0.3H8.7V29.9z"/>
	<path class="st1" d="M14.7,33.1c-0.6,0-1.1-0.2-1.4-0.6s-0.5-0.9-0.5-1.5v-0.2c0-0.6,0.2-1.1,0.5-1.5c0.4-0.4,0.8-0.6,1.3-0.6
		c0.6,0,1,0.2,1.3,0.5s0.4,0.8,0.4,1.4V31h-2.7l0,0c0,0.4,0.1,0.8,0.3,1s0.5,0.4,0.9,0.4c0.3,0,0.5,0,0.7-0.1s0.4-0.2,0.5-0.3
		l0.3,0.5c-0.2,0.1-0.4,0.3-0.6,0.4S15,33.1,14.7,33.1z M14.6,29.3c-0.3,0-0.5,0.1-0.7,0.3s-0.3,0.5-0.3,0.8l0,0h1.9v-0.1
		c0-0.3-0.1-0.6-0.2-0.8S14.9,29.3,14.6,29.3z M14.8,27h0.9l0,0l-1.1,1h-0.6L14.8,27z"/>
	<path class="st1" d="M19.6,31.8c0-0.2-0.1-0.3-0.2-0.4s-0.4-0.2-0.7-0.3c-0.5-0.1-0.9-0.3-1.1-0.4s-0.4-0.5-0.4-0.8
		c0-0.3,0.1-0.6,0.4-0.9c0.3-0.2,0.7-0.4,1.1-0.4c0.5,0,0.9,0.1,1.2,0.4c0.3,0.3,0.4,0.6,0.4,0.9l0,0h-0.7c0-0.2-0.1-0.3-0.2-0.5
		s-0.4-0.2-0.6-0.2c-0.3,0-0.5,0.1-0.6,0.2s-0.2,0.3-0.2,0.4c0,0.2,0.1,0.3,0.2,0.4s0.4,0.2,0.7,0.2c0.5,0.1,0.9,0.3,1.2,0.5
		s0.4,0.5,0.4,0.8c0,0.4-0.2,0.7-0.5,0.9s-0.7,0.4-1.2,0.4c-0.5,0-1-0.1-1.3-0.4s-0.5-0.6-0.4-1l0,0h0.7c0,0.3,0.1,0.5,0.3,0.6
		s0.4,0.2,0.7,0.2c0.3,0,0.5-0.1,0.6-0.2S19.6,32,19.6,31.8z"/>
	<path class="st1" d="M23,33.1c-0.6,0-1.1-0.2-1.4-0.6s-0.5-0.9-0.5-1.5v-0.2c0-0.6,0.2-1.1,0.5-1.5c0.4-0.4,0.8-0.6,1.3-0.6
		c0.6,0,1,0.2,1.3,0.5c0.3,0.4,0.4,0.8,0.4,1.4V31h-2.7l0,0c0,0.4,0.1,0.8,0.3,1c0.2,0.3,0.5,0.4,0.9,0.4c0.3,0,0.5,0,0.7-0.1
		c0.2-0.1,0.4-0.2,0.5-0.3l0.3,0.5c-0.2,0.1-0.3,0.3-0.6,0.4C23.7,33,23.4,33.1,23,33.1z M22.9,29.3c-0.3,0-0.5,0.1-0.7,0.3
		s-0.3,0.5-0.3,0.8l0,0h1.9v-0.1c0-0.3-0.1-0.6-0.2-0.8C23.5,29.4,23.2,29.3,22.9,29.3z"/>
	<path class="st1" d="M28.1,33c0-0.1,0-0.2-0.1-0.3s0-0.2,0-0.3c-0.1,0.2-0.3,0.4-0.6,0.5s-0.5,0.2-0.7,0.2c-0.4,0-0.8-0.1-1-0.3
		s-0.3-0.5-0.3-0.9c0-0.4,0.2-0.7,0.5-0.9c0.3-0.2,0.8-0.3,1.3-0.3H28v-0.4c0-0.2-0.1-0.4-0.2-0.6s-0.4-0.2-0.6-0.2
		c-0.2,0-0.5,0.1-0.6,0.2s-0.2,0.3-0.2,0.4l-0.7,0l0,0c0-0.3,0.1-0.6,0.4-0.8c0.3-0.3,0.7-0.4,1.2-0.4c0.5,0,0.9,0.1,1.2,0.4
		c0.3,0.2,0.4,0.6,0.4,1.1v2c0,0.2,0,0.3,0,0.4s0,0.3,0.1,0.4H28.1z M26.8,32.4c0.3,0,0.5-0.1,0.8-0.2s0.4-0.3,0.4-0.5V31h-0.9
		c-0.3,0-0.6,0.1-0.7,0.2s-0.3,0.3-0.3,0.6c0,0.2,0.1,0.3,0.2,0.4S26.6,32.4,26.8,32.4z"/>
	<path class="st1" d="M32.6,32.4c-0.1,0.2-0.3,0.4-0.5,0.5s-0.4,0.2-0.7,0.2c-0.5,0-0.8-0.1-1.1-0.4s-0.4-0.8-0.4-1.4v-2.5h0.8v2.5
		c0,0.5,0.1,0.8,0.2,0.9s0.3,0.3,0.6,0.3c0.3,0,0.5-0.1,0.7-0.2s0.3-0.3,0.4-0.5v-3h0.8V33h-0.7L32.6,32.4z"/>
</g>
</svg>
