<?xml version="1.0" encoding="utf-8"?>
<!-- Generator: Adobe Illustrator 27.9.0, SVG Export Plug-In . SVG Version: 6.00 Build 0)  -->
<svg version="1.1" id="Calque_1" xmlns="http://www.w3.org/2000/svg" xmlns:xlink="http://www.w3.org/1999/xlink" x="0px" y="0px"
	 viewBox="0 0 41.14 34.64" style="enable-background:new 0 0 41.14 34.64;" xml:space="preserve">
<style type="text/css">
	.st0{fill:#E17F0A;}
	.st1{fill:url(#SVGID_1_);}
	.st2{fill:url(#SVGID_00000158751161421978345280000000825448546412212376_);}
</style>
<g>
	<g>
		<path class="st0" d="M8.66,30.42v2.46H7.89V27.2h1.95c0.62,0,1.1,0.14,1.43,0.41s0.49,0.68,0.49,1.2c0,0.29-0.08,0.55-0.23,0.76
			c-0.15,0.21-0.37,0.39-0.67,0.52c0.31,0.1,0.54,0.27,0.67,0.49s0.21,0.51,0.21,0.85v0.54c0,0.18,0.02,0.34,0.06,0.48
			s0.11,0.25,0.2,0.34v0.09h-0.79c-0.1-0.09-0.17-0.22-0.2-0.39s-0.04-0.35-0.04-0.53v-0.52c0-0.31-0.09-0.55-0.27-0.74
			c-0.18-0.19-0.42-0.28-0.72-0.28C9.98,30.42,8.66,30.42,8.66,30.42z M8.66,29.82h1.1c0.43,0,0.75-0.08,0.94-0.25
			c0.19-0.17,0.29-0.42,0.29-0.76c0-0.32-0.09-0.57-0.28-0.74c-0.19-0.17-0.48-0.26-0.87-0.26H8.66V29.82z"/>
		<path class="st0" d="M14.63,32.97c-0.61,0-1.08-0.19-1.42-0.58s-0.51-0.9-0.51-1.53v-0.17c0-0.61,0.17-1.11,0.53-1.51
			s0.78-0.6,1.28-0.6c0.57,0,0.99,0.18,1.27,0.53s0.42,0.82,0.42,1.4v0.41h-2.7l-0.01,0.02c0,0.42,0.09,0.77,0.28,1.03
			c0.19,0.26,0.47,0.4,0.86,0.4c0.26,0,0.49-0.04,0.69-0.11s0.37-0.18,0.51-0.31l0.3,0.5c-0.15,0.15-0.35,0.27-0.6,0.37
			S14.97,32.97,14.63,32.97z M14.5,29.19c-0.27,0-0.49,0.1-0.67,0.31s-0.27,0.47-0.31,0.79l0.01,0.02h1.91v-0.06
			c0-0.31-0.08-0.56-0.23-0.76S14.82,29.19,14.5,29.19z M14.79,26.86h0.9l0.01,0.02l-1.05,1.02h-0.58L14.79,26.86z"/>
		<path class="st0" d="M19.52,31.75c0-0.17-0.06-0.31-0.19-0.41s-0.37-0.2-0.73-0.28c-0.5-0.11-0.88-0.26-1.15-0.45
			c-0.27-0.19-0.4-0.45-0.4-0.77c0-0.34,0.15-0.64,0.44-0.88c0.29-0.24,0.67-0.37,1.14-0.37c0.48,0,0.87,0.13,1.16,0.39
			c0.29,0.26,0.44,0.56,0.43,0.91l-0.01,0.02h-0.73c0-0.18-0.08-0.35-0.24-0.5s-0.36-0.22-0.61-0.22c-0.27,0-0.47,0.06-0.61,0.18
			s-0.2,0.27-0.2,0.44s0.06,0.3,0.17,0.39c0.11,0.09,0.35,0.17,0.72,0.25c0.52,0.11,0.91,0.26,1.18,0.46s0.4,0.46,0.4,0.79
			c0,0.38-0.15,0.68-0.46,0.92c-0.31,0.24-0.7,0.36-1.19,0.36c-0.54,0-0.96-0.14-1.27-0.41c-0.31-0.27-0.46-0.59-0.44-0.96
			l0.01-0.02h0.73c0.01,0.27,0.11,0.47,0.3,0.6s0.41,0.19,0.67,0.19c0.27,0,0.49-0.06,0.64-0.17C19.43,32.1,19.52,31.93,19.52,31.75
			z"/>
		<path class="st0" d="M23,32.97c-0.61,0-1.08-0.19-1.42-0.58s-0.51-0.9-0.51-1.53v-0.17c0-0.61,0.17-1.11,0.53-1.51
			s0.78-0.6,1.28-0.6c0.57,0,0.99,0.18,1.27,0.53s0.42,0.82,0.42,1.4v0.41h-2.7l-0.01,0.02c0,0.42,0.09,0.77,0.28,1.03
			c0.19,0.26,0.47,0.4,0.86,0.4c0.26,0,0.49-0.04,0.69-0.11s0.37-0.18,0.51-0.31l0.3,0.5c-0.15,0.15-0.35,0.27-0.6,0.37
			S23.35,32.97,23,32.97z M22.88,29.19c-0.27,0-0.49,0.1-0.67,0.31s-0.28,0.47-0.32,0.79l0.01,0.02h1.91v-0.06
			c0-0.31-0.08-0.56-0.23-0.76S23.19,29.19,22.88,29.19z"/>
		<path class="st0" d="M28.03,32.89c-0.03-0.13-0.05-0.24-0.06-0.34s-0.02-0.2-0.03-0.29c-0.14,0.2-0.33,0.37-0.56,0.51
			s-0.48,0.21-0.74,0.21c-0.44,0-0.78-0.11-1.01-0.34s-0.35-0.54-0.35-0.93c0-0.4,0.16-0.72,0.49-0.95s0.77-0.34,1.33-0.34h0.84
			v-0.43c0-0.25-0.08-0.44-0.23-0.59s-0.36-0.22-0.64-0.22c-0.25,0-0.45,0.06-0.61,0.19s-0.23,0.27-0.23,0.45l-0.73,0.01l-0.01-0.02
			c-0.02-0.31,0.13-0.59,0.43-0.84s0.7-0.38,1.19-0.38c0.48,0,0.86,0.12,1.16,0.37s0.44,0.59,0.44,1.05v2.04
			c0,0.15,0.01,0.3,0.02,0.44s0.04,0.28,0.09,0.41L28.03,32.89L28.03,32.89z M26.75,32.32c0.28,0,0.53-0.07,0.75-0.21
			c0.22-0.14,0.37-0.31,0.44-0.49v-0.69h-0.86c-0.31,0-0.56,0.08-0.74,0.23s-0.28,0.34-0.28,0.55c0,0.19,0.06,0.34,0.18,0.45
			S26.53,32.32,26.75,32.32z"/>
		<path class="st0" d="M32.52,32.26c-0.13,0.23-0.3,0.4-0.51,0.52c-0.21,0.12-0.45,0.18-0.72,0.18c-0.46,0-0.82-0.15-1.08-0.44
			s-0.39-0.75-0.39-1.38v-2.49h0.77v2.5c0,0.45,0.07,0.76,0.2,0.93c0.13,0.17,0.34,0.25,0.62,0.25c0.27,0,0.5-0.06,0.68-0.17
			s0.31-0.27,0.4-0.47v-3.05h0.77v4.23h-0.69L32.52,32.26z"/>
	</g>
	
		<linearGradient id="SVGID_1_" gradientUnits="userSpaceOnUse" x1="32.2282" y1="20.2312" x2="8.6791" y2="20.2312" gradientTransform="matrix(1 0 0 -1 0 32)">
		<stop  offset="1.108180e-06" style="stop-color:#EC7B00"/>
		<stop  offset="0.245" style="stop-color:#E97C02"/>
		<stop  offset="0.3915" style="stop-color:#E17F0A"/>
		<stop  offset="0.5123" style="stop-color:#D38518"/>
		<stop  offset="0.619" style="stop-color:#BF8D2B"/>
		<stop  offset="0.7163" style="stop-color:#A49843"/>
		<stop  offset="0.807" style="stop-color:#84A462"/>
		<stop  offset="0.8924" style="stop-color:#5EB486"/>
		<stop  offset="0.9716" style="stop-color:#32C5AF"/>
		<stop  offset="1" style="stop-color:#21CCBF"/>
	</linearGradient>
	<path class="st1" d="M30.22,5.15c2.06,3.14,2.48,7.32,0.92,10.75c-3.17,7.2-12.69,8.97-18.22,3.41C7.36,13.79,9.13,4.26,16.33,1.09
		c3.44-1.56,7.62-1.14,10.75,0.92c-5.89-4.02-14.4-1.85-17.4,5.01c-1.97,4.33-0.95,9.75,2.45,13.07c3.34,3.4,8.75,4.41,13.08,2.46
		C32.07,19.55,34.24,11.04,30.22,5.15z"/>
	
		<linearGradient id="SVGID_00000152969652374274053300000012640109455862427553_" gradientUnits="userSpaceOnUse" x1="27.9455" y1="20.6673" x2="13.9555" y2="20.6673" gradientTransform="matrix(1 0 0 -1 0 32)">
		<stop  offset="1.108180e-06" style="stop-color:#EC7B00"/>
		<stop  offset="0.245" style="stop-color:#E97C02"/>
		<stop  offset="0.3915" style="stop-color:#E17F0A"/>
		<stop  offset="0.5123" style="stop-color:#D38518"/>
		<stop  offset="0.619" style="stop-color:#BF8D2B"/>
		<stop  offset="0.7163" style="stop-color:#A49843"/>
		<stop  offset="0.807" style="stop-color:#84A462"/>
		<stop  offset="0.8924" style="stop-color:#5EB486"/>
		<stop  offset="0.9716" style="stop-color:#32C5AF"/>
		<stop  offset="1" style="stop-color:#21CCBF"/>
	</linearGradient>
	<path style="fill:url(#SVGID_00000152969652374274053300000012640109455862427553_);" d="M27.95,11.86c0,0.61-0.49,1.12-1.11,1.12
		c-0.56,0-1.03-0.42-1.11-0.97l-3.65-0.29c-0.07,0.34-0.25,0.64-0.5,0.85l2.44,3.72c0.12-0.05,0.26-0.07,0.39-0.07
		c0.61,0,1.11,0.49,1.11,1.11c0,0.61-0.49,1.12-1.11,1.12c-0.61,0-1.12-0.5-1.12-1.12c0-0.31,0.13-0.6,0.34-0.8l-2.44-3.7
		c-0.21,0.1-0.44,0.16-0.69,0.16c-0.33,0-0.64-0.1-0.9-0.27l-2.73,3.07c0.14,0.18,0.21,0.4,0.21,0.65c0,0.61-0.49,1.12-1.11,1.12
		c-0.61,0-1.11-0.5-1.11-1.12c0-0.61,0.49-1.11,1.11-1.11c0.2,0,0.38,0.05,0.55,0.15l2.74-3.07c-0.24-0.28-0.38-0.65-0.38-1.04
		c0-0.22,0.05-0.43,0.13-0.61L15.9,8.92c-0.2,0.23-0.49,0.37-0.82,0.37c-0.62-0.02-1.12-0.52-1.12-1.13s0.5-1.12,1.11-1.12
		s1.11,0.5,1.11,1.12c0,0.12-0.02,0.24-0.05,0.35l3.12,1.84c0.28-0.37,0.74-0.6,1.25-0.6c0.25,0,0.48,0.05,0.68,0.16l2.44-3.79
		c-0.2-0.2-0.33-0.48-0.33-0.79c0-0.61,0.5-1.12,1.12-1.12c0.61,0,1.11,0.5,1.11,1.12c0,0.61-0.49,1.11-1.11,1.11
		c-0.15,0-0.28-0.03-0.4-0.07l-2.45,3.79c0.32,0.26,0.54,0.66,0.56,1.11l3.65,0.29c0.14-0.46,0.57-0.8,1.07-0.8
		C27.45,10.75,27.95,11.25,27.95,11.86z"/>
</g>
</svg>
