<?xml version="1.0" encoding="utf-8"?>
<!-- Generator: Adobe Illustrator 27.9.0, SVG Export Plug-In . SVG Version: 6.00 Build 0)  -->
<svg version="1.1" id="Calque_1" xmlns="http://www.w3.org/2000/svg" xmlns:xlink="http://www.w3.org/1999/xlink" x="0px" y="0px"
	 viewBox="0 0 41.1 34.6" style="enable-background:new 0 0 41.1 34.6;" xml:space="preserve">
<style type="text/css">
	.st0{fill:url(#SVGID_1_);}
	.st1{fill:#E17F0A;}
	.st2{fill:none;stroke:#FFFFFF;stroke-miterlimit:10;}
</style>
<linearGradient id="SVGID_1_" gradientUnits="userSpaceOnUse" x1="31.8478" y1="8.0828" x2="9.3522" y2="15.6425">
	<stop  offset="1.108180e-06" style="stop-color:#EC7B00"/>
	<stop  offset="0.245" style="stop-color:#E97C02"/>
	<stop  offset="0.3915" style="stop-color:#E17F0A"/>
	<stop  offset="0.5123" style="stop-color:#D38518"/>
	<stop  offset="0.619" style="stop-color:#BF8D2B"/>
	<stop  offset="0.7163" style="stop-color:#A49843"/>
	<stop  offset="0.807" style="stop-color:#84A462"/>
	<stop  offset="0.8924" style="stop-color:#5EB486"/>
	<stop  offset="0.9716" style="stop-color:#32C5AF"/>
	<stop  offset="1" style="stop-color:#21CCBF"/>
</linearGradient>
<path class="st0" d="M23.4,4.3h-5.6c-0.4,0-0.7,0.3-0.7,0.7v13.1c0,0.4,0.3,0.7,0.7,0.7h5.6c0.4,0,0.7-0.3,0.7-0.7V5
	C24.1,4.6,23.8,4.3,23.4,4.3z M18.6,8.4c0-1.1,0.9-2,2-2c1.1,0,2,0.9,2,2c0,0,0,0,0,0c0,0,0,0,0,0.1c0,1.1-0.9,2-2,2
	c-1.1,0-2-0.9-2-2C18.6,8.5,18.6,8.5,18.6,8.4C18.6,8.4,18.6,8.4,18.6,8.4z M20.6,17.5c-1.5,0-2.7-1.2-2.7-2.7s1.2-2.7,2.7-2.7
	s2.7,1.2,2.7,2.7S22.1,17.5,20.6,17.5z M20.6,12.6c-1.2,0-2.2,1-2.2,2.2s1,2.2,2.2,2.2c1.2,0,2.2-1,2.2-2.2S21.8,12.6,20.6,12.6z
	 M20.6,16.2c-0.8,0-1.4-0.6-1.4-1.4s0.6-1.4,1.4-1.4c0.7,0,1.4,0.6,1.4,1.4S21.4,16.2,20.6,16.2z M20.6,9.9c0.8,0,1.5-0.6,1.5-1.4
	c0-0.8-0.7-1.5-1.5-1.5c-0.8,0-1.5,0.7-1.5,1.4C19.1,9.2,19.8,9.9,20.6,9.9z M20.6,7.5c0.5,0,0.9,0.4,0.9,0.9s-0.4,0.9-0.9,0.9
	s-0.9-0.4-0.9-0.9S20.1,7.5,20.6,7.5z M32.5,11.9C32.5,5.3,27.2,0,20.6,0C14,0,8.7,5.3,8.7,11.9S14,23.7,20.6,23.7
	C27.2,23.7,32.5,18.4,32.5,11.9z M24.6,18.2c0,0.7-0.6,1.2-1.2,1.2h-5.6c-0.7,0-1.2-0.5-1.2-1.2V5.1c0-0.7,0.6-1.2,1.2-1.2h5.6
	c0.6,0,1.2,0.5,1.2,1.1V18.2z"/>
<g>
	<path class="st1" d="M13.4,31.4c0-0.3-0.1-0.5-0.3-0.6s-0.5-0.3-1-0.4c-0.6-0.1-1-0.4-1.4-0.6s-0.5-0.6-0.5-1.1
		c0-0.4,0.2-0.8,0.5-1.1s0.8-0.4,1.4-0.4c0.6,0,1.1,0.2,1.4,0.5s0.5,0.7,0.5,1.2l0,0h-0.7c0-0.3-0.1-0.6-0.3-0.8s-0.5-0.3-0.9-0.3
		c-0.4,0-0.6,0.1-0.8,0.3c-0.2,0.2-0.3,0.4-0.3,0.7c0,0.2,0.1,0.5,0.3,0.6s0.6,0.3,1,0.4c0.6,0.1,1,0.4,1.3,0.7s0.4,0.6,0.4,1.1
		c0,0.5-0.2,0.8-0.5,1.1s-0.8,0.4-1.4,0.4c-0.5,0-1-0.2-1.5-0.5s-0.6-0.7-0.6-1.2l0,0h0.7c0,0.4,0.1,0.6,0.4,0.8s0.6,0.3,0.9,0.3
		c0.4,0,0.7-0.1,0.9-0.2S13.4,31.7,13.4,31.4z"/>
	<path class="st1" d="M17.8,32.8c0-0.1,0-0.2-0.1-0.3s0-0.2,0-0.3c-0.1,0.2-0.3,0.4-0.6,0.5s-0.5,0.2-0.7,0.2c-0.4,0-0.8-0.1-1-0.3
		S15,32.1,15,31.7c0-0.4,0.2-0.7,0.5-0.9s0.8-0.3,1.3-0.3h0.8V30c0-0.2-0.1-0.4-0.2-0.6s-0.4-0.2-0.6-0.2c-0.2,0-0.5,0.1-0.6,0.2
		S16,29.6,16,29.8l-0.7,0l0,0c0-0.3,0.1-0.6,0.4-0.8c0.3-0.3,0.7-0.4,1.2-0.4c0.5,0,0.9,0.1,1.2,0.4c0.3,0.2,0.4,0.6,0.4,1.1v2
		c0,0.2,0,0.3,0,0.4s0,0.3,0.1,0.4H17.8z M16.5,32.3c0.3,0,0.5-0.1,0.8-0.2s0.4-0.3,0.4-0.5v-0.7h-0.9c-0.3,0-0.6,0.1-0.7,0.2
		s-0.3,0.3-0.3,0.6c0,0.2,0.1,0.3,0.2,0.4S16.2,32.3,16.5,32.3z"/>
	<path class="st1" d="M20.4,32.8h-0.8v-6.1h0.8V32.8z"/>
	<path class="st1" d="M22.4,32.8h-0.8v-6.1h0.8V32.8z"/>
	<path class="st1" d="M25.3,32.9c-0.6,0-1.1-0.2-1.4-0.6s-0.5-0.9-0.5-1.5v-0.2c0-0.6,0.2-1.1,0.5-1.5c0.4-0.4,0.8-0.6,1.3-0.6
		c0.6,0,1,0.2,1.3,0.5c0.3,0.4,0.4,0.8,0.4,1.4v0.4h-2.7l0,0c0,0.4,0.1,0.8,0.3,1s0.5,0.4,0.9,0.4c0.3,0,0.5,0,0.7-0.1
		c0.2-0.1,0.4-0.2,0.5-0.3l0.3,0.5c-0.2,0.1-0.3,0.3-0.6,0.4C26,32.9,25.7,32.9,25.3,32.9z M25.2,29.2c-0.3,0-0.5,0.1-0.7,0.3
		s-0.3,0.5-0.3,0.8l0,0h1.9v-0.1c0-0.3-0.1-0.6-0.2-0.8C25.8,29.3,25.5,29.2,25.2,29.2z"/>
	<path class="st1" d="M30.2,31.7c0-0.2-0.1-0.3-0.2-0.4s-0.4-0.2-0.7-0.3c-0.5-0.1-0.9-0.3-1.1-0.4c-0.3-0.2-0.4-0.5-0.4-0.8
		c0-0.3,0.1-0.6,0.4-0.9c0.3-0.2,0.7-0.4,1.1-0.4c0.5,0,0.9,0.1,1.2,0.4c0.3,0.3,0.4,0.6,0.4,0.9l0,0h-0.7c0-0.2-0.1-0.3-0.2-0.5
		s-0.4-0.2-0.6-0.2c-0.3,0-0.5,0.1-0.6,0.2s-0.2,0.3-0.2,0.4c0,0.2,0.1,0.3,0.2,0.4c0.1,0.1,0.4,0.2,0.7,0.2
		c0.5,0.1,0.9,0.3,1.2,0.5s0.4,0.5,0.4,0.8c0,0.4-0.2,0.7-0.5,0.9s-0.7,0.4-1.2,0.4c-0.5,0-1-0.1-1.3-0.4c-0.3-0.3-0.5-0.6-0.4-1
		l0,0h0.7c0,0.3,0.1,0.5,0.3,0.6c0.2,0.1,0.4,0.2,0.7,0.2c0.3,0,0.5-0.1,0.6-0.2S30.2,31.9,30.2,31.7z"/>
</g>
<path class="st2" d="M23.6,19.4h-6c-0.6,0-1-0.5-1-1V4.9c0-0.6,0.5-1,1-1h6c0.6,0,1,0.5,1,1v13.5C24.6,18.9,24.1,19.4,23.6,19.4z"/>
</svg>
