<?xml version="1.0" encoding="utf-8"?>
<!-- Generator: Adobe Illustrator 27.9.0, SVG Export Plug-In . SVG Version: 6.00 Build 0)  -->
<svg version="1.1" id="Calque_1" xmlns="http://www.w3.org/2000/svg" xmlns:xlink="http://www.w3.org/1999/xlink" x="0px" y="0px"
	 viewBox="0 0 30 30" style="enable-background:new 0 0 30 30;" xml:space="preserve">
<style type="text/css">
	.st0{fill:url(#SVGID_1_);}
</style>
<linearGradient id="SVGID_1_" gradientUnits="userSpaceOnUse" x1="30" y1="15" x2="0" y2="15">
	<stop  offset="1.108180e-06" style="stop-color:#EC7B00"/>
	<stop  offset="0.245" style="stop-color:#E97C02"/>
	<stop  offset="0.3915" style="stop-color:#E17F0A"/>
	<stop  offset="0.5123" style="stop-color:#D38518"/>
	<stop  offset="0.619" style="stop-color:#BF8D2B"/>
	<stop  offset="0.7163" style="stop-color:#A49843"/>
	<stop  offset="0.807" style="stop-color:#84A462"/>
	<stop  offset="0.8924" style="stop-color:#5EB486"/>
	<stop  offset="0.9716" style="stop-color:#32C5AF"/>
	<stop  offset="1" style="stop-color:#21CCBF"/>
</linearGradient>
<path class="st0" d="M7.77,12.24l-0.1-0.03l2.31-3.83c0.12-0.03,0.41-0.14,0.87-0.32c0.65-0.24,1.26-0.42,1.83-0.54
	c0.59-0.11,1.3-0.17,2.13-0.17c0.91,0,1.78,0.07,2.6,0.22c0.8,0.14,1.96,0.43,3.49,0.87c1.18,0.33,2.08,0.55,2.71,0.66
	c0.61,0.1,1.48,0.18,2.61,0.22l-1.24,2.09l-7.41,2.37l-7.78,2.47c1.15,0.22,2.23,0.46,3.26,0.72c1.02,0.26,2.06,0.57,3.11,0.92
	c1.05,0.35,2.05,0.72,3,1.11c0.95,0.39,1.98,0.85,3.09,1.39c2.12-1.31,3.57-2.18,4.36-2.61l0.04,0.06
	c-0.68,0.66-2.27,2.38-4.77,5.16l-2.04,0.53c-1.74-0.85-3.36-1.59-4.86-2.2c-1.5-0.62-2.86-1.1-4.07-1.44
	c-1.16-0.34-2.34-0.63-3.51-0.88c-1.18-0.25-2.36-0.46-3.54-0.61c0.75-0.57,1.58-1.17,2.48-1.81c0.9-0.64,1.8-1.25,2.68-1.83
	c0.17-0.06,0.47-0.14,0.9-0.26c0.43-0.12,0.97-0.26,1.64-0.43c0.66-0.17,1.23-0.31,1.69-0.41c0.53-0.13,1.1-0.26,1.68-0.41
	c0.59-0.15,1.17-0.29,1.73-0.43c0.57-0.14,1.18-0.3,1.83-0.47c0.65-0.17,1.27-0.33,1.84-0.49c-1.52-0.56-2.74-0.91-3.66-1.07
	c-0.9-0.16-1.88-0.24-2.96-0.24C11.25,10.54,9.27,11.11,7.77,12.24z M25.62,4.38c7.44,7.39,5.06,20.14-4.57,24.36
	c-5.52,2.49-12.41,1.2-16.66-3.13C0.06,21.37-1.24,14.46,1.26,8.95C5.48-0.68,18.23-3.06,25.62,4.38L25.62,4.38z M25.62,4.38
	C21.58,0.25,14.98-0.99,9.73,1.4C0.57,5.43-1.69,17.57,5.39,24.61c7.04,7.09,19.18,4.83,23.21-4.34
	C30.99,15.02,29.76,8.42,25.62,4.38L25.62,4.38z"/>
</svg>
